M48
; DRILL file {KiCad 8.0.1} date 2024-05-03T08:16:13-0400
; FORMAT={-:-/ absolute / metric / decimal}
; #@! TF.CreationDate,2024-05-03T08:16:13-04:00
; #@! TF.GenerationSoftware,Kicad,Pcbnew,8.0.1
; #@! TF.FileFunction,Plated,1,4,PTH
FMAT,2
METRIC
; #@! TA.AperFunction,Plated,PTH,ViaDrill
T1C0.300
; #@! TA.AperFunction,Plated,PTH,ComponentDrill
T2C0.950
; #@! TA.AperFunction,Plated,PTH,ComponentDrill
T3C1.000
; #@! TA.AperFunction,Plated,PTH,ComponentDrill
T4C1.100
; #@! TA.AperFunction,Plated,PTH,ComponentDrill
T5C1.300
%
G90
G05
T1
X126.5Y-53.6
X126.5Y-61.2
X126.5Y-68.8
X126.5Y-76.4
X126.5Y-84.0
X126.5Y-91.6
X126.5Y-99.2
X126.5Y-106.8
X126.5Y-114.4
X134.1Y-46.0
X134.1Y-122.0
X134.11Y-72.11
X137.66Y-58.01
X140.61Y-72.11
X140.76Y-115.533
X141.7Y-46.0
X141.7Y-122.0
X143.65Y-88.35
X143.65Y-89.629
X143.65Y-90.9
X143.65Y-92.225
X145.075Y-87.75
X145.075Y-88.954
X145.075Y-90.229
X145.075Y-91.525
X145.075Y-92.925
X145.675Y-84.375
X147.1Y-101.825
X147.11Y-72.11
X149.3Y-46.0
X149.3Y-122.0
X150.65Y-99.05
X151.25Y-100.4
X151.85Y-99.05
X152.55Y-81.2
X152.55Y-100.4
X153.15Y-80.175
X153.61Y-72.11
X153.75Y-81.2
X155.064Y-101.825
X155.575Y-83.25
X156.225Y-84.35
X156.9Y-46.0
X156.9Y-122.0
X160.11Y-52.61
X160.11Y-58.82
X160.11Y-65.61
X160.11Y-72.11
X160.35Y-88.35
X160.35Y-90.95
X160.35Y-93.7
X161.745Y-96.844
X163.6Y-101.825
X164.5Y-46.0
X164.5Y-122.0
X166.641Y-101.825
X166.65Y-104.94
X168.142Y-84.175
X169.82Y-89.07
X170.536Y-101.825
X172.075Y-84.175
X172.1Y-46.0
X172.1Y-122.0
X178.22Y-101.825
X178.95Y-92.52
X179.7Y-46.0
X179.7Y-122.0
X186.225Y-78.425
X187.3Y-46.0
X187.3Y-122.0
X187.88Y-104.94
X192.075Y-75.65
X192.075Y-76.475
X194.9Y-46.0
X194.9Y-122.0
X202.5Y-53.6
X202.5Y-61.2
X202.5Y-68.8
X202.5Y-76.4
X202.5Y-84.0
X202.5Y-91.6
X202.5Y-99.2
X202.5Y-106.8
X202.5Y-114.4
T2
X128.25Y-103.0
X128.25Y-105.5
X128.25Y-108.0
X128.25Y-110.5
X192.7Y-89.325
X192.7Y-91.825
X192.7Y-94.325
X192.7Y-96.825
X192.7Y-99.325
X200.457Y-74.325
X200.457Y-76.825
X200.457Y-79.325
X200.457Y-81.825
X200.5Y-89.325
X200.5Y-91.825
X200.5Y-94.325
X200.5Y-96.825
X200.5Y-99.325
T3
X135.825Y-115.533
X138.365Y-115.533
X147.41Y-112.993
X147.41Y-115.533
X149.95Y-112.993
X149.95Y-115.533
X152.49Y-115.533
X152.49Y-112.993
X155.03Y-112.993
X155.03Y-115.533
X160.86Y-112.993
X160.86Y-115.533
X163.4Y-112.993
X163.4Y-115.533
X165.94Y-112.993
X165.94Y-115.533
X168.48Y-112.993
X168.48Y-115.533
X171.0Y-48.0
X171.02Y-112.993
X171.02Y-115.533
X173.5Y-48.0
X173.56Y-112.993
X173.56Y-115.533
X176.1Y-112.993
X176.1Y-115.533
X178.64Y-112.993
X178.64Y-115.533
X180.175Y-60.118
X180.175Y-65.118
X180.175Y-73.475
X180.175Y-78.475
X181.18Y-112.993
X181.18Y-115.533
X183.72Y-112.993
X183.72Y-115.533
X185.5Y-48.0
X186.26Y-112.993
X186.26Y-115.533
X188.0Y-48.0
X188.8Y-112.993
X188.8Y-115.533
X200.5Y-106.5
X200.5Y-109.0
T4
X150.29Y-65.57
X152.83Y-65.57
X155.37Y-65.57
T5
X130.5Y-58.03
X130.5Y-63.03
X130.5Y-69.68
X130.5Y-74.76
X130.5Y-79.84
X130.5Y-84.92
X130.5Y-90.0
X130.5Y-95.08
X141.0Y-50.25
X146.0Y-50.25
X153.0Y-50.25
X158.0Y-50.25
X198.457Y-60.325
X198.457Y-65.325
M30
