%TF.GenerationSoftware,KiCad,Pcbnew,8.0.1*%
%TF.CreationDate,2024-04-04T08:15:05-04:00*%
%TF.ProjectId,ambiens-sc1,616d6269-656e-4732-9d73-63312e6b6963,rev?*%
%TF.SameCoordinates,Original*%
%TF.FileFunction,Profile,NP*%
%FSLAX46Y46*%
G04 Gerber Fmt 4.6, Leading zero omitted, Abs format (unit mm)*
G04 Created by KiCad (PCBNEW 8.0.1) date 2024-04-04 08:15:05*
%MOMM*%
%LPD*%
G01*
G04 APERTURE LIST*
%TA.AperFunction,Profile*%
%ADD10C,0.100000*%
%TD*%
G04 APERTURE END LIST*
D10*
X125459408Y-122737856D02*
X125737144Y-123015592D01*
X204193447Y-46701628D02*
X204043138Y-46338748D01*
X201397507Y-123932465D02*
X201773372Y-123818447D01*
X124806862Y-121761252D02*
X124992017Y-122107651D01*
X203639767Y-122434234D02*
X203857983Y-122107651D01*
X125737144Y-123015592D02*
X126040766Y-123264767D01*
X201012276Y-44090908D02*
X200621389Y-44052409D01*
X204193447Y-121398372D02*
X204307465Y-121022507D01*
X204384092Y-47462724D02*
X204307465Y-47077493D01*
X124425000Y-120050000D02*
X124427409Y-120246389D01*
X126713748Y-123668138D02*
X127076628Y-123818447D01*
X201773372Y-44281553D02*
X201397507Y-44167535D01*
X203857983Y-122107651D02*
X204043138Y-121761252D01*
X201773372Y-123818447D02*
X202136252Y-123668138D01*
X126367349Y-123482983D02*
X126713748Y-123668138D01*
X203390592Y-45362144D02*
X203112856Y-45084408D01*
X203112856Y-123015592D02*
X203390592Y-122737856D01*
X128425000Y-44050000D02*
X128228611Y-44052409D01*
X204422591Y-120246389D02*
X204425000Y-120050000D01*
X202809234Y-44835233D02*
X202482651Y-44617017D01*
X204043138Y-46338748D02*
X203857983Y-45992349D01*
X127837724Y-124009092D02*
X128228611Y-124047591D01*
X124465908Y-47462724D02*
X124427409Y-47853611D01*
X125459408Y-45362144D02*
X125210233Y-45665766D01*
X200621389Y-44052409D02*
X200425000Y-44050000D01*
X201012276Y-124009092D02*
X201397507Y-123932465D01*
X127452493Y-123932465D02*
X127837724Y-124009092D01*
X124425000Y-48050000D02*
X124425000Y-120050000D01*
X126367349Y-44617017D02*
X126040766Y-44835233D01*
X124427409Y-47853611D02*
X124425000Y-48050000D01*
X203390592Y-122737856D02*
X203639767Y-122434234D01*
X124656553Y-121398372D02*
X124806862Y-121761252D01*
X125737144Y-45084408D02*
X125459408Y-45362144D01*
X124992017Y-45992349D02*
X124806862Y-46338748D01*
X124992017Y-122107651D02*
X125210233Y-122434234D01*
X200425000Y-44050000D02*
X128425000Y-44050000D01*
X202809234Y-123264767D02*
X203112856Y-123015592D01*
X204422591Y-47853611D02*
X204384092Y-47462724D01*
X204307465Y-47077493D02*
X204193447Y-46701628D01*
X125210233Y-122434234D02*
X125459408Y-122737856D01*
X200621389Y-124047591D02*
X201012276Y-124009092D01*
X128228611Y-44052409D02*
X127837724Y-44090908D01*
X126040766Y-123264767D02*
X126367349Y-123482983D01*
X204425000Y-48050000D02*
X204422591Y-47853611D01*
X125210233Y-45665766D02*
X124992017Y-45992349D01*
X200425000Y-124050000D02*
X200621389Y-124047591D01*
X127452493Y-44167535D02*
X127076628Y-44281553D01*
X202482651Y-123482983D02*
X202809234Y-123264767D01*
X204043138Y-121761252D02*
X204193447Y-121398372D01*
X124542535Y-47077493D02*
X124465908Y-47462724D01*
X203112856Y-45084408D02*
X202809234Y-44835233D01*
X204425000Y-120050000D02*
X204425000Y-48050000D01*
X124465908Y-120637276D02*
X124542535Y-121022507D01*
X202482651Y-44617017D02*
X202136252Y-44431862D01*
X203639767Y-45665766D02*
X203390592Y-45362144D01*
X128425000Y-124050000D02*
X200425000Y-124050000D01*
X127076628Y-123818447D02*
X127452493Y-123932465D01*
X126713748Y-44431862D02*
X126367349Y-44617017D01*
X127837724Y-44090908D02*
X127452493Y-44167535D01*
X124542535Y-121022507D02*
X124656553Y-121398372D01*
X126040766Y-44835233D02*
X125737144Y-45084408D01*
X124806862Y-46338748D02*
X124656553Y-46701628D01*
X202136252Y-123668138D02*
X202482651Y-123482983D01*
X201397507Y-44167535D02*
X201012276Y-44090908D01*
X204307465Y-121022507D02*
X204384092Y-120637276D01*
X124427409Y-120246389D02*
X124465908Y-120637276D01*
X124656553Y-46701628D02*
X124542535Y-47077493D01*
X203857983Y-45992349D02*
X203639767Y-45665766D01*
X128228611Y-124047591D02*
X128425000Y-124050000D01*
X127076628Y-44281553D02*
X126713748Y-44431862D01*
X202136252Y-44431862D02*
X201773372Y-44281553D01*
X204384092Y-120637276D02*
X204422591Y-120246389D01*
M02*
