M48
; DRILL file {KiCad 8.0.1} date 2024-04-04T08:15:29-0400
; FORMAT={-:-/ absolute / inch / decimal}
; #@! TF.CreationDate,2024-04-04T08:15:29-04:00
; #@! TF.GenerationSoftware,Kicad,Pcbnew,8.0.1
; #@! TF.FileFunction,Plated,1,4,PTH
FMAT,2
INCH
; #@! TA.AperFunction,Plated,PTH,ViaDrill
T1C0.0118
; #@! TA.AperFunction,Plated,PTH,ComponentDrill
T2C0.0374
; #@! TA.AperFunction,Plated,PTH,ComponentDrill
T3C0.0394
; #@! TA.AperFunction,Plated,PTH,ComponentDrill
T4C0.0433
; #@! TA.AperFunction,Plated,PTH,ComponentDrill
T5C0.0512
%
G90
G05
T1
X4.9803Y-2.1102
X4.9803Y-2.4094
X4.9803Y-2.7087
X4.9803Y-3.0079
X4.9803Y-3.3071
X4.9803Y-3.6063
X4.9803Y-3.9055
X4.9803Y-4.2047
X4.9803Y-4.5039
X5.2795Y-1.811
X5.2795Y-4.8031
X5.2799Y-2.839
X5.5358Y-2.839
X5.5417Y-4.5485
X5.5787Y-1.811
X5.5787Y-4.8031
X5.6555Y-3.4783
X5.6555Y-3.5287
X5.6555Y-3.5787
X5.6555Y-3.6309
X5.7116Y-3.4547
X5.7116Y-3.5021
X5.7116Y-3.5523
X5.7116Y-3.6033
X5.7116Y-3.6585
X5.7352Y-3.3219
X5.7913Y-4.0089
X5.7917Y-2.839
X5.878Y-1.811
X5.878Y-4.8031
X5.9311Y-3.8996
X5.9547Y-3.9528
X5.9783Y-3.8996
X6.0059Y-3.1969
X6.0059Y-3.9528
X6.0295Y-3.1565
X6.0476Y-2.839
X6.0531Y-3.1969
X6.1049Y-4.0089
X6.125Y-3.2776
X6.1506Y-3.3209
X6.1772Y-1.811
X6.1772Y-4.8031
X6.3035Y-2.0713
X6.3035Y-2.3157
X6.3035Y-2.5831
X6.3035Y-2.839
X6.313Y-3.4783
X6.313Y-3.5807
X6.313Y-3.689
X6.3679Y-3.8127
X6.4409Y-4.0089
X6.4764Y-1.811
X6.4764Y-4.8031
X6.5607Y-4.0089
X6.561Y-4.1315
X6.6198Y-3.314
X6.6858Y-3.5067
X6.714Y-4.0089
X6.7746Y-3.314
X6.7756Y-1.811
X6.7756Y-4.8031
X7.0165Y-4.0089
X7.0453Y-3.6425
X7.0748Y-1.811
X7.0748Y-4.8031
X7.3317Y-3.0876
X7.374Y-1.811
X7.374Y-4.8031
X7.3969Y-4.1315
X7.562Y-2.9783
X7.562Y-3.0108
X7.6732Y-1.811
X7.6732Y-4.8031
X7.9724Y-2.1102
X7.9724Y-2.4094
X7.9724Y-2.7087
X7.9724Y-3.0079
X7.9724Y-3.3071
X7.9724Y-3.6063
X7.9724Y-3.9055
X7.9724Y-4.2047
X7.9724Y-4.5039
T2
X5.0492Y-4.0551
X5.0492Y-4.1535
X5.0492Y-4.252
X5.0492Y-4.3504
X7.5866Y-3.5167
X7.5866Y-3.6152
X7.5866Y-3.7136
X7.5866Y-3.812
X7.5866Y-3.9104
X7.892Y-2.9262
X7.892Y-3.0246
X7.892Y-3.123
X7.892Y-3.2215
X7.8937Y-3.5167
X7.8937Y-3.6152
X7.8937Y-3.7136
X7.8937Y-3.812
X7.8937Y-3.9104
T3
X5.3474Y-4.5485
X5.4474Y-4.5485
X5.8035Y-4.4485
X5.8035Y-4.5485
X5.9035Y-4.4485
X5.9035Y-4.5485
X6.0035Y-4.5485
X6.0035Y-4.4485
X6.1035Y-4.4485
X6.1035Y-4.5485
X6.3331Y-4.4485
X6.3331Y-4.5485
X6.4331Y-4.4485
X6.4331Y-4.5485
X6.5331Y-4.4485
X6.5331Y-4.5485
X6.6331Y-4.4485
X6.6331Y-4.5485
X6.7323Y-1.8898
X6.7331Y-4.4485
X6.7331Y-4.5485
X6.8307Y-1.8898
X6.8331Y-4.4485
X6.8331Y-4.5485
X6.9331Y-4.4485
X6.9331Y-4.5485
X7.0331Y-4.4485
X7.0331Y-4.5485
X7.0935Y-2.3668
X7.0935Y-2.5637
X7.0935Y-2.8927
X7.0935Y-3.0896
X7.1331Y-4.4485
X7.1331Y-4.5485
X7.2331Y-4.4485
X7.2331Y-4.5485
X7.3031Y-1.8898
X7.3331Y-4.4485
X7.3331Y-4.5485
X7.4016Y-1.8898
X7.4331Y-4.4485
X7.4331Y-4.5485
X7.8937Y-4.1929
X7.8937Y-4.2913
T4
X5.9169Y-2.5815
X6.0169Y-2.5815
X6.1169Y-2.5815
T5
X5.1378Y-2.2846
X5.1378Y-2.4815
X5.1378Y-2.7433
X5.1378Y-2.9433
X5.1378Y-3.1433
X5.1378Y-3.3433
X5.1378Y-3.5433
X5.1378Y-3.7433
X5.5512Y-1.9783
X5.748Y-1.9783
X6.0236Y-1.9783
X6.2205Y-1.9783
X7.8133Y-2.375
X7.8133Y-2.5719
M30
