%TF.GenerationSoftware,KiCad,Pcbnew,8.0.1*%
%TF.CreationDate,2024-05-03T08:15:37-04:00*%
%TF.ProjectId,ambiens-sc1,616d6269-656e-4732-9d73-63312e6b6963,rev?*%
%TF.SameCoordinates,Original*%
%TF.FileFunction,Paste,Top*%
%TF.FilePolarity,Positive*%
%FSLAX46Y46*%
G04 Gerber Fmt 4.6, Leading zero omitted, Abs format (unit mm)*
G04 Created by KiCad (PCBNEW 8.0.1) date 2024-05-03 08:15:37*
%MOMM*%
%LPD*%
G01*
G04 APERTURE LIST*
G04 Aperture macros list*
%AMRoundRect*
0 Rectangle with rounded corners*
0 $1 Rounding radius*
0 $2 $3 $4 $5 $6 $7 $8 $9 X,Y pos of 4 corners*
0 Add a 4 corners polygon primitive as box body*
4,1,4,$2,$3,$4,$5,$6,$7,$8,$9,$2,$3,0*
0 Add four circle primitives for the rounded corners*
1,1,$1+$1,$2,$3*
1,1,$1+$1,$4,$5*
1,1,$1+$1,$6,$7*
1,1,$1+$1,$8,$9*
0 Add four rect primitives between the rounded corners*
20,1,$1+$1,$2,$3,$4,$5,0*
20,1,$1+$1,$4,$5,$6,$7,0*
20,1,$1+$1,$6,$7,$8,$9,0*
20,1,$1+$1,$8,$9,$2,$3,0*%
G04 Aperture macros list end*
%ADD10RoundRect,0.250000X0.262500X0.450000X-0.262500X0.450000X-0.262500X-0.450000X0.262500X-0.450000X0*%
%ADD11RoundRect,0.250000X-0.262500X-0.450000X0.262500X-0.450000X0.262500X0.450000X-0.262500X0.450000X0*%
%ADD12RoundRect,0.243750X-0.456250X0.243750X-0.456250X-0.243750X0.456250X-0.243750X0.456250X0.243750X0*%
%ADD13R,1.411198X0.507200*%
%ADD14R,1.100000X0.700000*%
%ADD15R,0.700000X0.400000*%
%ADD16RoundRect,0.225000X0.225000X0.250000X-0.225000X0.250000X-0.225000X-0.250000X0.225000X-0.250000X0*%
%ADD17RoundRect,0.250000X-0.450000X0.262500X-0.450000X-0.262500X0.450000X-0.262500X0.450000X0.262500X0*%
%ADD18RoundRect,0.150000X0.512500X0.150000X-0.512500X0.150000X-0.512500X-0.150000X0.512500X-0.150000X0*%
%ADD19RoundRect,0.225000X-0.250000X0.225000X-0.250000X-0.225000X0.250000X-0.225000X0.250000X0.225000X0*%
%ADD20RoundRect,0.225000X-0.225000X-0.250000X0.225000X-0.250000X0.225000X0.250000X-0.225000X0.250000X0*%
%ADD21RoundRect,0.250000X0.450000X-0.262500X0.450000X0.262500X-0.450000X0.262500X-0.450000X-0.262500X0*%
%ADD22R,0.950000X1.200000*%
%ADD23RoundRect,0.250000X-0.475000X0.250000X-0.475000X-0.250000X0.475000X-0.250000X0.475000X0.250000X0*%
%ADD24R,1.100000X1.300000*%
%ADD25R,1.454899X0.532600*%
%ADD26RoundRect,0.075000X0.662500X0.075000X-0.662500X0.075000X-0.662500X-0.075000X0.662500X-0.075000X0*%
%ADD27RoundRect,0.075000X0.075000X0.662500X-0.075000X0.662500X-0.075000X-0.662500X0.075000X-0.662500X0*%
%ADD28RoundRect,0.250000X0.250000X0.475000X-0.250000X0.475000X-0.250000X-0.475000X0.250000X-0.475000X0*%
%ADD29R,0.700000X0.900000*%
G04 APERTURE END LIST*
D10*
%TO.C,R16*%
X162244200Y-101825396D03*
X160419200Y-101825396D03*
%TD*%
D11*
%TO.C,R15*%
X156595239Y-101825000D03*
X158420239Y-101825000D03*
%TD*%
D12*
%TO.C,D3*%
X139660000Y-78882498D03*
X139660000Y-80757500D03*
%TD*%
D13*
%TO.C,U1*%
X183339200Y-88274998D03*
X183339200Y-87625000D03*
X183339200Y-86974998D03*
X183339200Y-86325000D03*
X178945000Y-86325000D03*
X178945000Y-86974998D03*
X178945000Y-87625000D03*
X178945000Y-88274998D03*
%TD*%
D10*
%TO.C,R11*%
X168142500Y-82775000D03*
X166317500Y-82775000D03*
%TD*%
D14*
%TO.C,SW1*%
X138860000Y-108770000D03*
X142760000Y-108770000D03*
X138860000Y-110770000D03*
X142760000Y-110770000D03*
D15*
X140810000Y-108015001D03*
X140810000Y-111524999D03*
%TD*%
D16*
%TO.C,C14*%
X144025000Y-113710000D03*
X142475000Y-113710000D03*
%TD*%
D17*
%TO.C,R7*%
X187650002Y-78450000D03*
X187650002Y-80275000D03*
%TD*%
%TO.C,R1*%
X137650001Y-59677500D03*
X137650001Y-61502500D03*
%TD*%
%TO.C,R5*%
X157430001Y-59897500D03*
X157430001Y-61722500D03*
%TD*%
D12*
%TO.C,D1*%
X139660000Y-59652499D03*
X139660000Y-61527501D03*
%TD*%
D18*
%TO.C,Q1*%
X148211298Y-61722499D03*
X148211298Y-59822501D03*
X145936298Y-60772500D03*
%TD*%
D17*
%TO.C,R10*%
X137650001Y-78867500D03*
X137650001Y-80692500D03*
%TD*%
D19*
%TO.C,C8*%
X159005000Y-96833545D03*
X159005000Y-98383545D03*
%TD*%
D20*
%TO.C,C12*%
X170535301Y-100237500D03*
X172085301Y-100237500D03*
%TD*%
%TO.C,C6*%
X178930000Y-91070000D03*
X180480000Y-91070000D03*
%TD*%
D19*
%TO.C,C4*%
X165850000Y-89183545D03*
X165850000Y-90733545D03*
%TD*%
D21*
%TO.C,R2*%
X150830000Y-61722500D03*
X150830000Y-59897500D03*
%TD*%
D22*
%TO.C,U4*%
X168410698Y-98344843D03*
X168410698Y-96144843D03*
X166660698Y-96144843D03*
X166660698Y-98344843D03*
%TD*%
D10*
%TO.C,R12*%
X172075000Y-82775000D03*
X170250000Y-82775000D03*
%TD*%
D12*
%TO.C,D4*%
X139660000Y-83972501D03*
X139660000Y-85847503D03*
%TD*%
D17*
%TO.C,R3*%
X152829998Y-59897500D03*
X152829998Y-61722500D03*
%TD*%
D21*
%TO.C,R9*%
X191700000Y-80275000D03*
X191700000Y-78450000D03*
%TD*%
D23*
%TO.C,C5*%
X167980002Y-89008546D03*
X167980002Y-90908546D03*
%TD*%
D19*
%TO.C,C9*%
X160525000Y-96833545D03*
X160525000Y-98383545D03*
%TD*%
D17*
%TO.C,R6*%
X137650000Y-68717501D03*
X137650000Y-70542501D03*
%TD*%
%TO.C,R14*%
X137650001Y-89064999D03*
X137650001Y-90889999D03*
%TD*%
D20*
%TO.C,C13*%
X178238984Y-100237500D03*
X179788984Y-100237500D03*
%TD*%
D24*
%TO.C,U5*%
X172430696Y-98494844D03*
X172430696Y-96194844D03*
X170530696Y-96194844D03*
X170530696Y-98494844D03*
%TD*%
D11*
%TO.C,R18*%
X142145000Y-115530000D03*
X143970000Y-115530000D03*
%TD*%
D25*
%TO.C,U3*%
X183895000Y-98375000D03*
X183895000Y-97105000D03*
X183895000Y-95835000D03*
X183895000Y-94565000D03*
X178452304Y-94565000D03*
X178452304Y-95835000D03*
X178452304Y-97105000D03*
X178452304Y-98375000D03*
%TD*%
D20*
%TO.C,C11*%
X166641497Y-100237500D03*
X168191497Y-100237500D03*
%TD*%
D16*
%TO.C,C7*%
X147075000Y-96480000D03*
X145525000Y-96480000D03*
%TD*%
D17*
%TO.C,R17*%
X135800000Y-110845000D03*
X135800000Y-112670000D03*
%TD*%
%TO.C,R13*%
X137650001Y-83957500D03*
X137650001Y-85782500D03*
%TD*%
D26*
%TO.C,U2*%
X157562372Y-93728672D03*
X157562372Y-93228672D03*
X157562372Y-92728672D03*
X157562372Y-92228671D03*
X157562372Y-91728672D03*
X157562372Y-91228672D03*
X157562372Y-90728672D03*
X157562372Y-90228672D03*
X157562372Y-89728673D03*
X157562372Y-89228672D03*
X157562372Y-88728672D03*
X157562372Y-88228672D03*
D27*
X156149872Y-86816172D03*
X155649872Y-86816172D03*
X155149872Y-86816172D03*
X154649871Y-86816172D03*
X154149872Y-86816172D03*
X153649872Y-86816172D03*
X153149872Y-86816172D03*
X152649872Y-86816172D03*
X152149873Y-86816172D03*
X151649872Y-86816172D03*
X151149872Y-86816172D03*
X150649872Y-86816172D03*
D26*
X149237372Y-88228672D03*
X149237372Y-88728672D03*
X149237372Y-89228672D03*
X149237372Y-89728673D03*
X149237372Y-90228672D03*
X149237372Y-90728672D03*
X149237372Y-91228672D03*
X149237372Y-91728672D03*
X149237372Y-92228671D03*
X149237372Y-92728672D03*
X149237372Y-93228672D03*
X149237372Y-93728672D03*
D27*
X150649872Y-95141172D03*
X151149872Y-95141172D03*
X151649872Y-95141172D03*
X152149873Y-95141172D03*
X152649872Y-95141172D03*
X153149872Y-95141172D03*
X153649872Y-95141172D03*
X154149872Y-95141172D03*
X154649871Y-95141172D03*
X155149872Y-95141172D03*
X155649872Y-95141172D03*
X156149872Y-95141172D03*
%TD*%
D28*
%TO.C,C10*%
X147249999Y-98433542D03*
X145349999Y-98433542D03*
%TD*%
D29*
%TO.C,Q3*%
X189675001Y-76000001D03*
X190975001Y-76000001D03*
X190325001Y-74100001D03*
%TD*%
D21*
%TO.C,R4*%
X155430000Y-61722500D03*
X155430000Y-59897500D03*
%TD*%
D19*
%TO.C,C3*%
X147500000Y-84375000D03*
X147500000Y-85925000D03*
%TD*%
D21*
%TO.C,R8*%
X189675001Y-80275000D03*
X189675001Y-78450000D03*
%TD*%
D12*
%TO.C,D5*%
X139660000Y-89080000D03*
X139660000Y-90955002D03*
%TD*%
%TO.C,D2*%
X139659999Y-68732499D03*
X139659999Y-70607501D03*
%TD*%
M02*
