%TF.GenerationSoftware,KiCad,Pcbnew,8.0.1*%
%TF.CreationDate,2024-05-03T08:15:37-04:00*%
%TF.ProjectId,ambiens-sc1,616d6269-656e-4732-9d73-63312e6b6963,rev?*%
%TF.SameCoordinates,Original*%
%TF.FileFunction,Soldermask,Bot*%
%TF.FilePolarity,Negative*%
%FSLAX46Y46*%
G04 Gerber Fmt 4.6, Leading zero omitted, Abs format (unit mm)*
G04 Created by KiCad (PCBNEW 8.0.1) date 2024-05-03 08:15:37*
%MOMM*%
%LPD*%
G01*
G04 APERTURE LIST*
G04 Aperture macros list*
%AMRoundRect*
0 Rectangle with rounded corners*
0 $1 Rounding radius*
0 $2 $3 $4 $5 $6 $7 $8 $9 X,Y pos of 4 corners*
0 Add a 4 corners polygon primitive as box body*
4,1,4,$2,$3,$4,$5,$6,$7,$8,$9,$2,$3,0*
0 Add four circle primitives for the rounded corners*
1,1,$1+$1,$2,$3*
1,1,$1+$1,$4,$5*
1,1,$1+$1,$6,$7*
1,1,$1+$1,$8,$9*
0 Add four rect primitives between the rounded corners*
20,1,$1+$1,$2,$3,$4,$5,0*
20,1,$1+$1,$4,$5,$6,$7,0*
20,1,$1+$1,$6,$7,$8,$9,0*
20,1,$1+$1,$8,$9,$2,$3,0*%
G04 Aperture macros list end*
%ADD10RoundRect,0.050800X1.300000X1.300000X-1.300000X1.300000X-1.300000X-1.300000X1.300000X-1.300000X0*%
%ADD11C,2.701600*%
%ADD12RoundRect,0.050800X-1.300000X1.300000X-1.300000X-1.300000X1.300000X-1.300000X1.300000X1.300000X0*%
%ADD13RoundRect,0.050800X1.000000X-1.000000X1.000000X1.000000X-1.000000X1.000000X-1.000000X-1.000000X0*%
%ADD14C,2.101600*%
%ADD15RoundRect,0.050800X0.952500X1.000000X-0.952500X1.000000X-0.952500X-1.000000X0.952500X-1.000000X0*%
%ADD16O,2.006600X2.101600*%
%ADD17RoundRect,0.264941X-0.760859X0.635859X-0.760859X-0.635859X0.760859X-0.635859X0.760859X0.635859X0*%
%ADD18O,2.051600X1.801600*%
%ADD19RoundRect,0.050800X0.850000X-0.850000X0.850000X0.850000X-0.850000X0.850000X-0.850000X-0.850000X0*%
%ADD20O,1.801600X1.801600*%
%ADD21C,3.301600*%
%ADD22RoundRect,0.264941X-0.635859X-0.785859X0.635859X-0.785859X0.635859X0.785859X-0.635859X0.785859X0*%
%ADD23O,1.801600X2.101600*%
%ADD24RoundRect,0.264941X0.760859X-0.635859X0.760859X0.635859X-0.760859X0.635859X-0.760859X-0.635859X0*%
%ADD25RoundRect,0.050800X-0.850000X0.850000X-0.850000X-0.850000X0.850000X-0.850000X0.850000X0.850000X0*%
%ADD26RoundRect,0.050800X1.300000X-1.300000X1.300000X1.300000X-1.300000X1.300000X-1.300000X-1.300000X0*%
%ADD27RoundRect,0.264941X-0.785859X0.635859X-0.785859X-0.635859X0.785859X-0.635859X0.785859X0.635859X0*%
%ADD28O,2.101600X1.801600*%
%ADD29RoundRect,0.274780X0.288520X0.476020X-0.288520X0.476020X-0.288520X-0.476020X0.288520X-0.476020X0*%
%ADD30RoundRect,0.175400X0.175400X-0.537900X0.175400X0.537900X-0.175400X0.537900X-0.175400X-0.537900X0*%
%ADD31RoundRect,0.274780X-0.288520X-0.476020X0.288520X-0.476020X0.288520X0.476020X-0.288520X0.476020X0*%
G04 APERTURE END LIST*
D10*
%TO.C,J4*%
X158000000Y-50250000D03*
D11*
X153000000Y-50250000D03*
%TD*%
D12*
%TO.C,J7*%
X130500000Y-69680000D03*
D11*
X130500000Y-74759999D03*
X130500000Y-79840000D03*
X130500000Y-84920000D03*
X130500000Y-90000000D03*
X130500000Y-95080000D03*
%TD*%
D13*
%TO.C,C1*%
X180175000Y-65117678D03*
D14*
X180175000Y-60117678D03*
%TD*%
D15*
%TO.C,Q2*%
X155369999Y-65570000D03*
D16*
X152829999Y-65570000D03*
X150290000Y-65570000D03*
%TD*%
D17*
%TO.C,J8*%
X200457322Y-74325000D03*
D18*
X200457322Y-76825000D03*
X200457322Y-79325000D03*
X200457322Y-81825000D03*
%TD*%
D19*
%TO.C,J14*%
X147410000Y-115532934D03*
D20*
X147410000Y-112992934D03*
X149950000Y-115532934D03*
X149950000Y-112992934D03*
X152489999Y-115532934D03*
X152490000Y-112992934D03*
X155030000Y-115532934D03*
X155030000Y-112992934D03*
%TD*%
D21*
%TO.C,H3*%
X128500000Y-120000000D03*
%TD*%
D22*
%TO.C,J1*%
X171000000Y-48000000D03*
D23*
X173500000Y-48000000D03*
%TD*%
D24*
%TO.C,J12*%
X128250000Y-110500000D03*
D18*
X128250000Y-108000000D03*
X128250000Y-105500000D03*
X128250000Y-103000000D03*
%TD*%
D25*
%TO.C,J13*%
X138365000Y-115532934D03*
D20*
X135825000Y-115532934D03*
%TD*%
D19*
%TO.C,J15*%
X160860000Y-115532934D03*
D20*
X160860000Y-112992934D03*
X163400000Y-115532934D03*
X163400000Y-112992934D03*
X165940000Y-115532934D03*
X165940000Y-112992934D03*
X168480000Y-115532934D03*
X168480000Y-112992934D03*
X171020000Y-115532934D03*
X171020000Y-112992934D03*
X173560000Y-115532934D03*
X173560000Y-112992934D03*
X176100000Y-115532934D03*
X176100000Y-112992934D03*
X178640000Y-115532934D03*
X178640000Y-112992934D03*
X181180000Y-115532934D03*
X181180000Y-112992934D03*
X183720000Y-115532934D03*
X183720000Y-112992934D03*
X186260000Y-115532934D03*
X186260000Y-112992934D03*
X188800000Y-115532934D03*
X188800000Y-112992934D03*
%TD*%
D13*
%TO.C,C2*%
X180175000Y-78475000D03*
D14*
X180175000Y-73475000D03*
%TD*%
D21*
%TO.C,H2*%
X200500000Y-48000000D03*
%TD*%
D12*
%TO.C,J5*%
X130500000Y-58030000D03*
D11*
X130500000Y-63030000D03*
%TD*%
D21*
%TO.C,H1*%
X128500000Y-48000000D03*
%TD*%
D26*
%TO.C,J6*%
X198457322Y-65325000D03*
D11*
X198457322Y-60325000D03*
%TD*%
D17*
%TO.C,J9*%
X192700000Y-89325000D03*
D18*
X192700000Y-91825000D03*
X192700000Y-94325000D03*
X192700000Y-96825000D03*
X192700000Y-99325000D03*
%TD*%
D21*
%TO.C,H4*%
X200500000Y-120000000D03*
%TD*%
D10*
%TO.C,J3*%
X146000000Y-50250000D03*
D11*
X141000000Y-50250000D03*
%TD*%
D17*
%TO.C,J10*%
X200500001Y-89325000D03*
D18*
X200500001Y-91825000D03*
X200500001Y-94325000D03*
X200500001Y-96825000D03*
X200500001Y-99325000D03*
%TD*%
D22*
%TO.C,J2*%
X185500000Y-48000000D03*
D23*
X188000000Y-48000000D03*
%TD*%
D27*
%TO.C,J11*%
X200500000Y-106500000D03*
D28*
X200500000Y-109000000D03*
%TD*%
D29*
%TO.C,R19*%
X136450000Y-104524799D03*
X134625000Y-104524799D03*
%TD*%
D30*
%TO.C,Q4*%
X136449999Y-102077500D03*
X134550001Y-102077500D03*
X135500000Y-99802500D03*
%TD*%
D31*
%TO.C,R20*%
X134625000Y-106500000D03*
X136450000Y-106500000D03*
%TD*%
M02*
